<mxfile host="app.diagrams.net" modified="2022-02-25T08:55:33.094Z" agent="5.0 (Windows NT 10.0; Win64; x64) AppleWebKit/537.36 (KHTML, like Gecko) Chrome/98.0.4758.102 Safari/537.36" etag="_ooWJIy_lVhNVwsAbhnv" version="16.6.4" type="github">
  <diagram id="R-ugYYLntL-yWxEJQGBO" name="第 1 页">
    <mxGraphModel dx="1110" dy="413" grid="1" gridSize="10" guides="1" tooltips="1" connect="1" arrows="1" fold="1" page="1" pageScale="1" pageWidth="827" pageHeight="1169" math="0" shadow="0">
      <root>
        <mxCell id="0" />
        <mxCell id="1" parent="0" />
        <mxCell id="RwoeQ9pEv86tN0X3BAsC-18" value="" style="rounded=0;whiteSpace=wrap;html=1;dashed=1;strokeColor=#CC0000;" vertex="1" parent="1">
          <mxGeometry x="370" y="90" width="300" height="190" as="geometry" />
        </mxCell>
        <mxCell id="RwoeQ9pEv86tN0X3BAsC-3" style="edgeStyle=orthogonalEdgeStyle;rounded=0;orthogonalLoop=1;jettySize=auto;html=1;exitX=1;exitY=0.25;exitDx=0;exitDy=0;entryX=0;entryY=0.25;entryDx=0;entryDy=0;" edge="1" parent="1" source="RwoeQ9pEv86tN0X3BAsC-1" target="RwoeQ9pEv86tN0X3BAsC-2">
          <mxGeometry relative="1" as="geometry" />
        </mxCell>
        <mxCell id="RwoeQ9pEv86tN0X3BAsC-1" value="&lt;h4&gt;Apollo配置中心&lt;/h4&gt;" style="rounded=0;whiteSpace=wrap;html=1;" vertex="1" parent="1">
          <mxGeometry x="120" y="150" width="120" height="60" as="geometry" />
        </mxCell>
        <mxCell id="RwoeQ9pEv86tN0X3BAsC-6" style="edgeStyle=orthogonalEdgeStyle;rounded=0;orthogonalLoop=1;jettySize=auto;html=1;exitX=0;exitY=0.75;exitDx=0;exitDy=0;entryX=1;entryY=0.75;entryDx=0;entryDy=0;" edge="1" parent="1" source="RwoeQ9pEv86tN0X3BAsC-2" target="RwoeQ9pEv86tN0X3BAsC-1">
          <mxGeometry relative="1" as="geometry" />
        </mxCell>
        <mxCell id="RwoeQ9pEv86tN0X3BAsC-2" value="&lt;h4&gt;Apollo客户端&lt;/h4&gt;" style="rounded=0;whiteSpace=wrap;html=1;" vertex="1" parent="1">
          <mxGeometry x="390" y="150" width="120" height="60" as="geometry" />
        </mxCell>
        <mxCell id="RwoeQ9pEv86tN0X3BAsC-8" value="" style="edgeStyle=orthogonalEdgeStyle;rounded=0;orthogonalLoop=1;jettySize=auto;html=1;" edge="1" parent="1" source="RwoeQ9pEv86tN0X3BAsC-7" target="RwoeQ9pEv86tN0X3BAsC-1">
          <mxGeometry relative="1" as="geometry" />
        </mxCell>
        <mxCell id="RwoeQ9pEv86tN0X3BAsC-10" value="" style="edgeStyle=orthogonalEdgeStyle;rounded=0;orthogonalLoop=1;jettySize=auto;html=1;" edge="1" parent="1" source="RwoeQ9pEv86tN0X3BAsC-7" target="RwoeQ9pEv86tN0X3BAsC-1">
          <mxGeometry relative="1" as="geometry" />
        </mxCell>
        <mxCell id="RwoeQ9pEv86tN0X3BAsC-7" value="" style="shape=umlActor;verticalLabelPosition=bottom;verticalAlign=top;html=1;outlineConnect=0;" vertex="1" parent="1">
          <mxGeometry x="165" y="40" width="30" height="60" as="geometry" />
        </mxCell>
        <mxCell id="RwoeQ9pEv86tN0X3BAsC-11" value="修改/发布" style="text;html=1;strokeColor=none;fillColor=none;align=center;verticalAlign=middle;whiteSpace=wrap;rounded=0;" vertex="1" parent="1">
          <mxGeometry x="180" y="110" width="60" height="30" as="geometry" />
        </mxCell>
        <mxCell id="RwoeQ9pEv86tN0X3BAsC-12" value="&lt;h4&gt;配置更新通知&lt;/h4&gt;" style="text;html=1;strokeColor=none;fillColor=none;align=center;verticalAlign=middle;whiteSpace=wrap;rounded=0;" vertex="1" parent="1">
          <mxGeometry x="270" y="140" width="80" height="30" as="geometry" />
        </mxCell>
        <mxCell id="RwoeQ9pEv86tN0X3BAsC-13" value="&lt;h4&gt;获取最新配置&lt;/h4&gt;" style="text;html=1;strokeColor=none;fillColor=none;align=center;verticalAlign=middle;whiteSpace=wrap;rounded=0;" vertex="1" parent="1">
          <mxGeometry x="270" y="170" width="80" height="30" as="geometry" />
        </mxCell>
        <mxCell id="RwoeQ9pEv86tN0X3BAsC-16" value="&lt;h4&gt;修改/发布&lt;/h4&gt;" style="text;html=1;strokeColor=none;fillColor=none;align=center;verticalAlign=middle;whiteSpace=wrap;rounded=0;" vertex="1" parent="1">
          <mxGeometry x="180" y="110" width="60" height="30" as="geometry" />
        </mxCell>
      </root>
    </mxGraphModel>
  </diagram>
</mxfile>
